<?xml version="1.0" standalone="no"?>
<!DOCTYPE svg PUBLIC "-//W3C//DTD SVG 20010904//EN"
 "http://www.w3.org/TR/2001/REC-SVG-20010904/DTD/svg10.dtd">
<svg version="1.0" xmlns="http://www.w3.org/2000/svg"
 width="256.000000pt" height="256.000000pt" viewBox="0 0 256.000000 256.000000"
 preserveAspectRatio="xMidYMid meet">

<g transform="translate(0.000000,256.000000) scale(0.100000,-0.100000)"
fill="#000000" stroke="none">
<path d="M1083 2534 c-683 -106 -1166 -766 -1058 -1444 44 -272 163 -506 355
-700 111 -111 197 -175 325 -240 363 -185 787 -185 1150 0 128 65 214 129 325
240 284 286 414 680 355 1075 -105 698 -756 1176 -1452 1069z m399 -79 c249
-44 461 -155 638 -334 159 -160 259 -333 316 -549 35 -129 44 -353 20 -487
-18 -103 -59 -241 -79 -269 -14 -19 -17 -17 -63 30 -43 43 -53 61 -78 144 -27
88 -29 106 -26 235 2 149 -8 230 -42 335 -78 241 -249 441 -473 552 -138 69
-261 98 -415 98 -154 0 -277 -29 -415 -98 -96 -48 -148 -85 -229 -161 -146
-141 -244 -327 -277 -525 -14 -87 -8 -273 12 -353 12 -49 11 -57 -15 -121 -34
-88 -75 -153 -115 -181 l-31 -22 -21 48 c-36 85 -69 196 -86 288 -23 134 -14
358 21 487 57 216 157 389 316 549 175 177 386 288 635 334 98 18 303 18 407
0z m98 -605 c65 -13 135 -12 202 2 43 9 61 9 69 1 7 -7 13 -51 14 -105 2 -105
1 -102 160 -437 47 -101 102 -234 122 -295 48 -152 68 -191 130 -244 29 -25
53 -48 53 -51 0 -3 -9 -20 -19 -37 l-19 -32 -68 19 c-126 35 -262 23 -408 -36
-55 -22 -62 -23 -78 -8 -39 35 -34 53 30 112 75 70 91 115 68 194 -23 78 -150
360 -186 412 -32 46 -40 50 -75 36 -37 -15 -115 46 -115 90 0 10 22 47 50 83
46 62 68 119 57 149 -3 7 -32 27 -65 45 -81 43 -86 51 -61 91 19 31 23 33 57
26 20 -4 57 -11 82 -15z m-649 -10 l86 0 51 -102 c51 -101 131 -235 199 -330
l35 -48 34 30 c49 42 84 40 123 -7 37 -45 37 -51 10 -105 -27 -53 -35 -141
-20 -218 10 -49 66 -240 87 -294 3 -9 -28 -38 -79 -77 -75 -56 -132 -114 -156
-157 -6 -11 -17 -9 -55 10 -46 22 -47 23 -41 59 13 76 -76 441 -145 593 -52
117 -201 299 -229 281 -6 -3 -23 -29 -36 -56 -14 -27 -30 -49 -35 -49 -8 0
-128 56 -137 64 -2 2 11 40 27 85 17 45 35 103 40 128 13 56 0 75 -66 93 -24
7 -47 17 -50 22 -3 5 6 28 21 50 l27 41 112 -6 c61 -4 150 -7 197 -7z m-251
-500 c33 -17 60 -34 60 -38 0 -4 -25 -73 -56 -152 -60 -159 -84 -243 -84 -306
0 -36 6 -47 40 -78 27 -25 40 -44 40 -62 0 -26 -1 -27 -54 -20 -101 12 -222
-15 -327 -71 -4 -2 -17 13 -29 33 -23 35 -23 37 -4 47 36 19 100 95 127 151
15 31 53 129 83 219 62 178 120 307 141 307 2 0 30 -14 63 -30z m1491 -736
c38 -8 69 -19 69 -24 0 -24 -124 -156 -218 -231 -136 -109 -275 -178 -457
-227 -91 -24 -116 -27 -285 -27 -167 0 -195 3 -285 27 -220 57 -396 158 -559
321 l-100 99 30 18 c41 27 138 50 204 50 53 0 60 -3 126 -55 123 -98 286 -171
439 -196 112 -18 289 -7 398 25 110 33 225 90 310 155 60 46 98 62 177 74 52
8 83 7 151 -9z"/>
</g>
</svg>
